<svg width="386" height="333" viewBox="0 0 386 333" fill="none" xmlns="http://www.w3.org/2000/svg">
<path d="M191.198 7.96499C188.643 2.18999 197.883 -1.90501 200.438 3.58999C260.498 107.05 320.558 210.562 380.618 314.18C377.415 314.18 374.335 313.13 371.255 312.64L210.955 280.685C205.705 280.422 204.55 271.935 209.678 270.675L272.573 253.35C273.322 253.16 274.021 252.807 274.618 252.316C275.215 251.824 275.696 251.207 276.027 250.508C276.358 249.809 276.531 249.046 276.533 248.273C276.535 247.499 276.365 246.735 276.038 246.035L191.198 7.825V7.9475V7.96499Z" fill="#8da4ea"/>
<path d="M181.975 8.49001C182.553 9.33001 183.06 10.24 183.497 11.185C202.503 65.085 221.998 118.985 240.863 172.885C242.543 177.365 236.243 181.093 233.163 177.75C216.993 160.81 201.592 143.363 185.685 126.423C183.113 124.113 179.385 125.653 177.723 128.085L12.435 322.265C10.51 324.313 8.8475 327.393 5.6275 327.778C3.3175 327.778 1.7775 325.975 0.5 324.19V321.215C61.0675 217.02 121.565 112.79 181.975 8.49001Z" fill="#8da4ea"/>
<path d="M131.4 193.412C134.48 192.52 138.575 194.69 137.56 198.417C131.138 220.747 124.348 242.955 117.663 265.145C116.648 267.98 119.203 270.535 121.898 270.675C208.4 288 294.902 305.955 381.387 323.28C383.068 323.543 384.223 324.82 385.5 325.852V329.44L383.05 332.013H15.9C54.4 285.813 92.7775 239.35 131.4 193.412Z" fill="#8da4ea"/>
</svg>
