<svg width="180" height="80" viewBox="0 0 180 80" fill="none" xmlns="http://www.w3.org/2000/svg">
<g filter="url(#filter0_d_108_1621)">
<path d="M6.29492 63.3877V65.9551H15.8877V69.1025H6.29492V75H2.30957V60.2402H16.4141V63.3877H6.29492ZM38.9189 67.6309C38.9189 68.8984 38.6862 70.0192 38.2207 70.9932C37.7552 71.96 37.0892 72.7692 36.2227 73.4209C35.3561 74.0726 34.3034 74.5667 33.0645 74.9033C31.8327 75.2327 30.4469 75.3975 28.9072 75.3975C27.3675 75.3975 25.9746 75.2327 24.7285 74.9033C23.4896 74.5667 22.4333 74.0726 21.5596 73.4209C20.6859 72.7692 20.0127 71.96 19.54 70.9932C19.0674 70.0192 18.8311 68.8984 18.8311 67.6309C18.8311 66.3633 19.0674 65.2461 19.54 64.2793C20.0127 63.3053 20.6859 62.4925 21.5596 61.8408C22.4333 61.1891 23.4896 60.6986 24.7285 60.3691C25.9746 60.0326 27.3675 59.8643 28.9072 59.8643C30.4469 59.8643 31.8327 60.0326 33.0645 60.3691C34.3034 60.6986 35.3561 61.1891 36.2227 61.8408C37.0892 62.4925 37.7552 63.3053 38.2207 64.2793C38.6862 65.2461 38.9189 66.3633 38.9189 67.6309ZM34.8906 67.6309C34.8906 67.0794 34.8011 66.5316 34.6221 65.9873C34.4502 65.4359 34.1387 64.9417 33.6875 64.5049C33.2435 64.068 32.6348 63.7135 31.8613 63.4414C31.0879 63.1693 30.1032 63.0332 28.9072 63.0332C28.1051 63.0332 27.3997 63.0977 26.791 63.2266C26.1823 63.3483 25.6559 63.5202 25.2119 63.7422C24.7679 63.9642 24.3955 64.2256 24.0947 64.5264C23.7939 64.82 23.554 65.1387 23.375 65.4824C23.196 65.819 23.0671 66.1735 22.9883 66.5459C22.9167 66.9111 22.8809 67.2728 22.8809 67.6309C22.8809 67.9961 22.9167 68.3649 22.9883 68.7373C23.0671 69.1097 23.196 69.4678 23.375 69.8115C23.554 70.1481 23.7939 70.4632 24.0947 70.7568C24.3955 71.0505 24.7679 71.3083 25.2119 71.5303C25.6559 71.7451 26.1823 71.917 26.791 72.0459C27.3997 72.1676 28.1051 72.2285 28.9072 72.2285C30.1032 72.2285 31.0879 72.0924 31.8613 71.8203C32.6348 71.5482 33.2435 71.1937 33.6875 70.7568C34.1387 70.32 34.4502 69.8294 34.6221 69.2852C34.8011 68.7337 34.8906 68.1823 34.8906 67.6309ZM59.9736 70.0264C59.9736 70.764 59.791 71.4587 59.4258 72.1104C59.0605 72.762 58.5127 73.3314 57.7822 73.8184C57.0518 74.3053 56.1387 74.6921 55.043 74.9785C53.9544 75.2578 52.6797 75.3975 51.2188 75.3975C49.7578 75.3975 48.4759 75.2578 47.373 74.9785C46.2773 74.6921 45.3643 74.3053 44.6338 73.8184C43.9033 73.3314 43.3555 72.762 42.9902 72.1104C42.625 71.4587 42.4424 70.764 42.4424 70.0264V60.2402H46.417V68.5977C46.417 69.0918 46.4779 69.5609 46.5996 70.0049C46.7285 70.4417 46.9648 70.8249 47.3086 71.1543C47.6595 71.4837 48.1465 71.7451 48.7695 71.9385C49.3997 72.1318 50.2161 72.2285 51.2188 72.2285C52.2142 72.2285 53.0234 72.1318 53.6465 71.9385C54.2695 71.7451 54.7529 71.4837 55.0967 71.1543C55.4476 70.8249 55.6839 70.4417 55.8057 70.0049C55.9274 69.5609 55.9883 69.0918 55.9883 68.5977V60.2402H59.9736V70.0264ZM68.4707 75H64.4854V60.2402H74.4756C75.5498 60.2402 76.4593 60.3512 77.2041 60.5732C77.9561 60.7952 78.5648 61.1104 79.0303 61.5186C79.5029 61.9268 79.8431 62.4209 80.0508 63.001C80.2656 63.5739 80.373 64.2148 80.373 64.9238C80.373 65.5469 80.2835 66.0911 80.1045 66.5566C79.9326 67.0221 79.6963 67.4232 79.3955 67.7598C79.1019 68.0892 78.7581 68.3685 78.3643 68.5977C77.9704 68.8268 77.555 69.0166 77.1182 69.167L81.9521 75H77.29L72.8213 69.5645H68.4707V75ZM76.3447 64.9023C76.3447 64.6159 76.3053 64.3724 76.2266 64.1719C76.1549 63.9714 76.026 63.8102 75.8398 63.6885C75.6536 63.5596 75.403 63.4665 75.0879 63.4092C74.7799 63.3519 74.3932 63.3232 73.9277 63.3232H68.4707V66.4814H73.9277C74.3932 66.4814 74.7799 66.4528 75.0879 66.3955C75.403 66.3382 75.6536 66.2487 75.8398 66.127C76.026 65.998 76.1549 65.8333 76.2266 65.6328C76.3053 65.4323 76.3447 65.1888 76.3447 64.9023ZM98.4092 64.3975C98.1299 64.2614 97.7611 64.1074 97.3027 63.9355C96.8444 63.7637 96.3252 63.6025 95.7451 63.4521C95.165 63.2946 94.5348 63.1657 93.8545 63.0654C93.1742 62.958 92.4759 62.9043 91.7598 62.9043C91.1868 62.9043 90.6963 62.9222 90.2881 62.958C89.887 62.9938 89.5469 63.0404 89.2676 63.0977C88.9954 63.1549 88.777 63.223 88.6123 63.3018C88.4548 63.3734 88.333 63.4486 88.2471 63.5273C88.1611 63.6061 88.1038 63.6849 88.0752 63.7637C88.0537 63.8424 88.043 63.9141 88.043 63.9785C88.043 64.1934 88.1504 64.3831 88.3652 64.5479C88.5801 64.7054 88.8737 64.8486 89.2461 64.9775C89.6185 65.0993 90.0518 65.2174 90.5459 65.332C91.04 65.4395 91.5628 65.554 92.1143 65.6758C92.6729 65.7904 93.2458 65.9193 93.833 66.0625C94.4274 66.1986 95.0003 66.3597 95.5518 66.5459C96.1104 66.7321 96.6367 66.9505 97.1309 67.2012C97.625 67.4447 98.0583 67.7311 98.4307 68.0605C98.8031 68.39 99.0967 68.7695 99.3115 69.1992C99.5264 69.6289 99.6338 70.1195 99.6338 70.6709C99.6338 71.3799 99.5085 71.9886 99.2578 72.4971C99.0072 73.0055 98.6706 73.4352 98.248 73.7861C97.8327 74.137 97.3493 74.4199 96.7979 74.6348C96.2464 74.8424 95.6663 75.0036 95.0576 75.1182C94.4561 75.2327 93.8438 75.3079 93.2207 75.3438C92.6048 75.3796 92.0176 75.3975 91.459 75.3975C89.998 75.3975 88.6445 75.2757 87.3984 75.0322C86.1595 74.7959 85.0638 74.4987 84.1113 74.1406V70.6172C85.0924 71.1615 86.2096 71.5876 87.4629 71.8955C88.7233 72.2035 90.0697 72.3574 91.502 72.3574C92.347 72.3574 93.0345 72.3145 93.5645 72.2285C94.1016 72.1354 94.5205 72.0208 94.8213 71.8848C95.1221 71.7415 95.3262 71.5876 95.4336 71.4229C95.541 71.2581 95.5947 71.1006 95.5947 70.9502C95.5947 70.7139 95.4873 70.5098 95.2725 70.3379C95.0576 70.1589 94.764 70.0049 94.3916 69.876C94.0192 69.7399 93.5859 69.6182 93.0918 69.5107C92.5977 69.3962 92.0713 69.2852 91.5127 69.1777C90.9613 69.0632 90.3919 68.9414 89.8047 68.8125C89.2174 68.6836 88.6445 68.5332 88.0859 68.3613C87.5345 68.1823 87.0117 67.9782 86.5176 67.749C86.0234 67.5127 85.5902 67.237 85.2178 66.9219C84.8454 66.5996 84.5518 66.2308 84.3369 65.8154C84.1221 65.3929 84.0146 64.9059 84.0146 64.3545C84.0146 63.7028 84.1292 63.1406 84.3584 62.668C84.5876 62.1953 84.8955 61.7943 85.2822 61.4648C85.6761 61.1283 86.1273 60.8561 86.6357 60.6484C87.1514 60.4408 87.6921 60.2796 88.2578 60.165C88.8236 60.0505 89.3965 59.9717 89.9766 59.9287C90.5566 59.8857 91.1081 59.8643 91.6309 59.8643C92.2038 59.8643 92.791 59.8929 93.3926 59.9502C94.0013 60.0075 94.5993 60.0898 95.1865 60.1973C95.7738 60.2975 96.3395 60.4157 96.8838 60.5518C97.4352 60.6878 97.9437 60.8311 98.4092 60.9814V64.3975ZM111.687 63.4521V75H107.701V63.4521H101.438V60.2402H117.96V63.4521H111.687ZM120.603 75V60.2402H135.545V63.3877H124.695V65.8262H134.986V68.9736H124.695V71.8525H135.695V75H120.603ZM155.815 73.9902C155.3 74.2051 154.781 74.3984 154.258 74.5703C153.735 74.7422 153.194 74.889 152.636 75.0107C152.077 75.1396 151.486 75.2363 150.863 75.3008C150.247 75.3652 149.585 75.3975 148.876 75.3975C147.372 75.3975 145.986 75.2363 144.719 74.9141C143.458 74.5918 142.37 74.1084 141.453 73.4639C140.544 72.8122 139.835 72.0029 139.326 71.0361C138.818 70.0622 138.563 68.9271 138.563 67.6309C138.563 66.3346 138.818 65.2031 139.326 64.2363C139.835 63.2624 140.544 62.4531 141.453 61.8086C142.37 61.1569 143.458 60.6699 144.719 60.3477C145.986 60.0254 147.372 59.8643 148.876 59.8643C149.585 59.8643 150.247 59.8965 150.863 59.9609C151.486 60.0254 152.077 60.1221 152.636 60.251C153.194 60.3727 153.735 60.5195 154.258 60.6914C154.781 60.8633 155.3 61.0566 155.815 61.2715V64.8594C155.407 64.6374 154.978 64.4189 154.526 64.2041C154.075 63.9821 153.577 63.7852 153.033 63.6133C152.489 63.4342 151.891 63.291 151.239 63.1836C150.588 63.069 149.854 63.0117 149.037 63.0117C147.784 63.0117 146.742 63.1406 145.911 63.3984C145.088 63.6562 144.429 64 143.935 64.4297C143.44 64.8594 143.093 65.3535 142.893 65.9121C142.692 66.4635 142.592 67.0365 142.592 67.6309C142.592 68.0247 142.635 68.415 142.721 68.8018C142.807 69.1813 142.95 69.543 143.15 69.8867C143.351 70.2233 143.612 70.5348 143.935 70.8213C144.257 71.1077 144.658 71.3548 145.138 71.5625C145.618 71.7702 146.176 71.9349 146.813 72.0566C147.458 72.1712 148.199 72.2285 149.037 72.2285C149.854 72.2285 150.588 72.1784 151.239 72.0781C151.891 71.9707 152.489 71.8311 153.033 71.6592C153.577 71.4873 154.075 71.2939 154.526 71.0791C154.978 70.8571 155.407 70.6315 155.815 70.4023V73.9902ZM173.658 75V68.8447H163.518V75H159.532V60.2402H163.518V65.6113H173.658V60.2402H177.644V75H173.658Z" fill="white"/>
</g>
<path d="M88.7193 1.08566C88.3211 0.185663 89.7611 -0.452519 90.1593 0.403845C99.5193 16.5275 108.879 32.6593 118.239 48.8075C117.74 48.8075 117.26 48.6438 116.78 48.5675L91.7984 43.5875C90.9802 43.5466 90.8002 42.2238 91.5993 42.0275L101.401 39.3275C101.518 39.2979 101.627 39.2428 101.72 39.1663C101.813 39.0897 101.888 38.9935 101.94 38.8846C101.991 38.7757 102.018 38.6567 102.018 38.5362C102.019 38.4157 101.992 38.2966 101.941 38.1875L88.7193 1.06385V1.08294V1.08566Z" fill="#8da4ea"/>
<path d="M87.2818 1.16748C87.3718 1.29839 87.4509 1.44021 87.5191 1.58748C90.4809 9.98748 93.5191 18.3875 96.4591 26.7875C96.7209 27.4857 95.7391 28.0666 95.2591 27.5457C92.7391 24.9057 90.3391 22.1866 87.86 19.5466C87.4591 19.1866 86.8782 19.4266 86.6191 19.8057L60.86 50.0675C60.56 50.3866 60.3009 50.8666 59.7991 50.9266C59.4391 50.9266 59.1991 50.6457 59 50.3675V49.9038C68.4391 33.6657 77.8673 17.422 87.2818 1.16748V1.16748Z" fill="#8da4ea"/>
<path d="M79.3999 29.9866C79.8799 29.8475 80.5181 30.1857 80.3599 30.7666C79.359 34.2466 78.3008 37.7075 77.259 41.1657C77.1008 41.6075 77.499 42.0057 77.919 42.0275C91.3999 44.7275 104.881 47.5257 118.359 50.2257C118.621 50.2666 118.801 50.4657 119 50.6266V51.1857L118.618 51.5866H61.3999C67.3999 44.3866 73.3808 37.1457 79.3999 29.9866V29.9866Z" fill="#8da4ea"/>
<defs>
<filter id="filter0_d_108_1621" x="0.30957" y="59.8643" width="179.334" height="19.5332" filterUnits="userSpaceOnUse" color-interpolation-filters="sRGB">
<feFlood flood-opacity="0" result="BackgroundImageFix"/>
<feColorMatrix in="SourceAlpha" type="matrix" values="0 0 0 0 0 0 0 0 0 0 0 0 0 0 0 0 0 0 127 0" result="hardAlpha"/>
<feOffset dy="2"/>
<feGaussianBlur stdDeviation="1"/>
<feComposite in2="hardAlpha" operator="out"/>
<feColorMatrix type="matrix" values="0 0 0 0 1 0 0 0 0 1 0 0 0 0 1 0 0 0 0.25 0"/>
<feBlend mode="normal" in2="BackgroundImageFix" result="effect1_dropShadow_108_1621"/>
<feBlend mode="normal" in="SourceGraphic" in2="effect1_dropShadow_108_1621" result="shape"/>
</filter>
</defs>
</svg>
